<svg width="133" height="40" viewBox="0 0 133 40" fill="none" xmlns="http://www.w3.org/2000/svg">
<g clip-path="url(#clip0_104_2288)">
<path d="M0 5.33333C0 2.38781 2.3536 0 5.25692 0H127.743C130.646 0 133 2.38782 133 5.33333V34.6667C133 37.6122 130.646 40 127.743 40H5.25692C2.3536 40 0 37.6122 0 34.6667V5.33333Z" fill="black"/>
<path fill-rule="evenodd" clip-rule="evenodd" d="M0 34.6667V5.33333C0 2.38782 2.3536 0 5.25692 0H127.743C130.646 0 133 2.38781 133 5.33333V34.6667C133 37.6122 130.646 40 127.743 40H5.25692C2.3536 40 0 37.6122 0 34.6667ZM0.788538 34.6667V5.33333C0.788538 2.82964 2.7891 0.8 5.25692 0.8H127.743C130.211 0.8 132.211 2.82964 132.211 5.33333V34.6667C132.211 37.1704 130.211 39.2 127.743 39.2H5.25692C2.7891 39.2 0.788538 37.1704 0.788538 34.6667Z" fill="white" fill-opacity="0.3"/>
<path d="M30.055 20.8147C30.0415 18.4703 31.0884 16.7035 33.2027 15.4006C32.0202 13.6819 30.2312 12.7366 27.873 12.5544C25.6401 12.3756 23.1972 13.8744 22.3027 13.8744C21.3574 13.8744 19.1957 12.6163 17.4948 12.6163C13.9845 12.6713 10.2541 15.4556 10.2541 21.1206C10.2541 22.7947 10.5556 24.5238 11.1588 26.3044C11.9652 28.6488 14.8723 34.3928 17.9048 34.3C19.4905 34.2622 20.612 33.1588 22.6754 33.1588C24.6779 33.1588 25.7147 34.3 27.4833 34.3C30.5429 34.2553 33.1722 29.0338 33.9379 26.6825C29.8348 24.7197 30.055 20.935 30.055 20.8147ZM26.494 10.3303C28.2118 8.26095 28.0559 6.3772 28.0051 5.70001C26.4872 5.78939 24.7321 6.74845 23.7325 7.92751C22.6314 9.19251 21.9842 10.7566 22.1231 12.52C23.763 12.6472 25.2606 11.7913 26.494 10.3303Z" fill="white"/>
<path d="M48.5618 28.9461H46.8216L45.8683 25.8931H42.5549L41.6468 28.9461H39.9526L43.2354 18.5522H45.2629L48.5618 28.9461ZM45.581 24.6122L44.7189 21.8981C44.6277 21.6209 44.4568 20.9679 44.2047 19.9401H44.1741C44.0737 20.3821 43.912 21.0351 43.6898 21.8981L42.843 24.6122H45.581Z" fill="white"/>
<path d="M57.004 25.1067C57.004 26.3813 56.6661 27.3888 55.9902 28.1285C55.3848 28.7869 54.6331 29.1157 53.7358 29.1157C52.7672 29.1157 52.0714 28.7611 51.6476 28.0519H51.617V32H49.9833V23.9187C49.9833 23.1174 49.9626 22.2949 49.9227 21.4514H51.3595L51.4507 22.6394H51.4814C52.0262 21.7443 52.853 21.2976 53.9626 21.2976C54.83 21.2976 55.5542 21.6467 56.1335 22.3457C56.7143 23.0455 57.004 23.9656 57.004 25.1067ZM55.3396 25.1676C55.3396 24.4381 55.1787 23.8367 54.8553 23.3634C54.5021 22.8698 54.0277 22.623 53.4331 22.623C53.03 22.623 52.6637 22.7604 52.3365 23.0315C52.0086 23.3048 51.794 23.6617 51.6936 24.1038C51.643 24.31 51.6178 24.4787 51.6178 24.6115V25.8611C51.6178 26.4063 51.7817 26.8663 52.1097 27.242C52.4377 27.6177 52.8637 27.8051 53.3879 27.8051C54.0032 27.8051 54.4821 27.563 54.8247 27.0803C55.168 26.5969 55.3396 25.9595 55.3396 25.1676Z" fill="white"/>
<path d="M65.4618 25.1067C65.4618 26.3813 65.1239 27.3888 64.4472 28.1285C63.8426 28.7869 63.0909 29.1157 62.1936 29.1157C61.225 29.1157 60.5292 28.7611 60.1062 28.0519H60.0756V32H58.4418V23.9187C58.4418 23.1174 58.4211 22.2949 58.3813 21.4514H59.8181L59.9093 22.6394H59.9399C60.484 21.7443 61.3108 21.2976 62.4212 21.2976C63.2878 21.2976 64.012 21.6467 64.5928 22.3457C65.1714 23.0455 65.4618 23.9656 65.4618 25.1067ZM63.7974 25.1676C63.7974 24.4381 63.6357 23.8367 63.3124 23.3634C62.9591 22.8698 62.4863 22.623 61.8909 22.623C61.4871 22.623 61.1215 22.7604 60.7936 23.0315C60.4656 23.3048 60.2518 23.6617 60.1514 24.1038C60.1016 24.31 60.0756 24.4787 60.0756 24.6115V25.8611C60.0756 26.4063 60.2395 26.8663 60.566 27.242C60.8939 27.6169 61.32 27.8051 61.8457 27.8051C62.461 27.8051 62.9399 27.563 63.2825 27.0803C63.6258 26.5969 63.7974 25.9595 63.7974 25.1676Z" fill="white"/>
<path d="M74.9179 26.0315C74.9179 26.9156 74.6168 27.6349 74.0122 28.1902C73.3478 28.7971 72.4229 29.1001 71.2344 29.1001C70.1371 29.1001 69.2574 28.8846 68.5914 28.4527L68.97 27.0648C69.6872 27.5068 70.4742 27.7286 71.3317 27.7286C71.947 27.7286 72.426 27.5865 72.77 27.3038C73.1125 27.021 73.2834 26.6415 73.2834 26.1682C73.2834 25.7464 73.1424 25.391 72.8597 25.1028C72.5784 24.8146 72.1087 24.5467 71.4528 24.2991C69.6673 23.6204 68.7754 22.6262 68.7754 21.3187C68.7754 20.4643 69.088 19.7637 69.7141 19.2185C70.3378 18.6726 71.17 18.4 72.2106 18.4C73.1386 18.4 73.9095 18.5648 74.5248 18.8936L74.1164 20.2511C73.5417 19.9324 72.8919 19.7731 72.1646 19.7731C71.5899 19.7731 71.1409 19.9176 70.819 20.205C70.547 20.4619 70.4106 20.7751 70.4106 21.1461C70.4106 21.5569 70.5662 21.8967 70.8788 22.1638C71.1508 22.4106 71.6451 22.6777 72.3624 22.9659C73.2398 23.326 73.8842 23.747 74.2988 24.2296C74.7118 24.7107 74.9179 25.3129 74.9179 26.0315Z" fill="white"/>
<path d="M80.3192 22.7012H78.5184V26.3401C78.5184 27.2656 78.8357 27.7279 79.4717 27.7279C79.7637 27.7279 80.0058 27.7022 80.1974 27.6506L80.2426 28.9151C79.9207 29.0377 79.497 29.0994 78.9721 29.0994C78.3269 29.0994 77.8227 28.8987 77.4587 28.498C77.0962 28.0966 76.9138 27.4233 76.9138 26.4775V22.6997H75.841V21.45H76.9138V20.0778L78.5184 19.5841V21.45H80.3192V22.7012Z" fill="white"/>
<path d="M88.4443 25.1371C88.4443 26.2891 88.1209 27.235 87.4757 27.9746C86.799 28.7361 85.901 29.1157 84.7814 29.1157C83.7025 29.1157 82.8435 28.7509 82.2028 28.0215C81.5622 27.292 81.2419 26.3711 81.2419 25.2613C81.2419 24.0999 81.5714 23.1486 82.2327 22.409C82.8925 21.6686 83.7829 21.2984 84.9025 21.2984C85.9814 21.2984 86.8496 21.6631 87.5048 22.3934C88.1316 23.1018 88.4443 24.0163 88.4443 25.1371ZM86.7492 25.191C86.7492 24.4998 86.6044 23.907 86.3109 23.4126C85.9684 22.8143 85.4787 22.516 84.8442 22.516C84.1875 22.516 83.6887 22.8151 83.3461 23.4126C83.0527 23.9078 82.9078 24.51 82.9078 25.2223C82.9078 25.9135 83.0527 26.5063 83.3461 26.9999C83.6994 27.5981 84.1929 27.8965 84.8297 27.8965C85.4534 27.8965 85.9431 27.5919 86.2964 26.9843C86.5975 26.4805 86.7492 25.8814 86.7492 25.191Z" fill="white"/>
<path d="M93.7545 22.9159C93.5928 22.8854 93.4204 22.8698 93.2396 22.8698C92.6648 22.8698 92.2204 23.0908 91.9078 23.5337C91.6357 23.9242 91.4993 24.4178 91.4993 25.0137V28.9462H89.8663L89.8817 23.8117C89.8817 22.9479 89.861 22.1614 89.8204 21.4522H91.2434L91.3031 22.8862H91.3484C91.5208 22.3934 91.7928 21.9966 92.1652 21.699C92.5292 21.4311 92.9223 21.2976 93.3461 21.2976C93.497 21.2976 93.6334 21.3085 93.7545 21.328V22.9159Z" fill="white"/>
<path d="M101.061 24.8443C101.061 25.1426 101.042 25.3941 101.001 25.5995H96.0997C96.1189 26.34 96.3557 26.9062 96.8108 27.2967C97.2239 27.6458 97.758 27.8208 98.4139 27.8208C99.1396 27.8208 99.8017 27.7028 100.397 27.4662L100.653 28.6221C99.9572 28.9314 99.1357 29.0853 98.1879 29.0853C97.0476 29.0853 96.1526 28.7432 95.5013 28.0598C94.8514 27.3764 94.5258 26.4587 94.5258 25.3074C94.5258 24.1773 94.8285 23.2361 95.4346 22.4856C96.0691 21.6842 96.9265 21.2836 98.0055 21.2836C99.0653 21.2836 99.8675 21.6842 100.412 22.4856C100.844 23.1221 101.061 23.9094 101.061 24.8443ZM99.5028 24.4124C99.5135 23.9188 99.407 23.4923 99.1856 23.1323C98.9028 22.6691 98.4683 22.4379 97.8836 22.4379C97.3495 22.4379 96.9151 22.6636 96.5832 23.1166C96.3112 23.4767 96.1495 23.9086 96.0997 24.4116H99.5028V24.4124Z" fill="white"/>
<path d="M41.6364 11.9875H42.4783C43.2915 11.9875 43.7679 12.3583 43.7679 12.9833V12.9916C43.7679 13.5708 43.2669 13.95 42.503 13.95C41.7227 13.95 41.2257 13.6375 41.16 13.0833L41.1559 13.05H40.2565L40.2606 13.1C40.3222 14.0916 41.1929 14.7666 42.503 14.7666C43.772 14.7666 44.7084 14.025 44.7084 13.0333V13.025C44.7084 12.2166 44.2197 11.6458 43.427 11.5458V11.5125C44.0842 11.3583 44.5277 10.8 44.5277 10.1333V10.125C44.5277 9.1958 43.7145 8.55414 42.5235 8.55414C41.2832 8.55414 40.4741 9.17497 40.4125 10.1916L40.4084 10.25H41.2914L41.2955 10.1916C41.3654 9.67497 41.7966 9.3708 42.4948 9.3708C43.2053 9.3708 43.616 9.69164 43.616 10.225V10.2333C43.616 10.8083 43.1601 11.2041 42.4537 11.2041H41.6364V11.9875Z" fill="white"/>
<path d="M47.683 14.7458C48.258 14.7458 48.7549 14.4458 49.0055 13.975H49.026V14.6666H49.9131V11.6458C49.9131 10.7666 49.2437 10.2 48.1882 10.2C47.1245 10.2 46.4797 10.7791 46.4181 11.5333L46.414 11.5791H47.2518L47.26 11.5416C47.3339 11.1916 47.6502 10.9458 48.1635 10.9458C48.7139 10.9458 49.026 11.2375 49.026 11.7208V12.05L47.8473 12.1208C46.8247 12.1833 46.2415 12.65 46.2415 13.4125V13.4208C46.2415 14.2083 46.8206 14.7458 47.683 14.7458ZM47.1368 13.4V13.3916C47.1368 13.0208 47.4325 12.7833 47.9664 12.75L49.026 12.6833V13.025C49.026 13.5958 48.5496 14.025 47.9253 14.025C47.4489 14.025 47.1368 13.7833 47.1368 13.4Z" fill="white"/>
<path d="M54.6373 11V10.2833H51.7747V14.6666H52.6618V11H54.6373Z" fill="white"/>
<path d="M56.3058 16.125H57.1929V13.9291H57.2135C57.4681 14.4375 57.9651 14.7541 58.577 14.7541C59.6612 14.7541 60.3717 13.875 60.3717 12.4791V12.475C60.3717 11.075 59.6653 10.2 58.5647 10.2C57.9486 10.2 57.4722 10.5166 57.2135 11.0375H57.1929V10.2833H56.3058V16.125ZM58.3347 13.9791C57.6652 13.9791 57.1888 13.3875 57.1888 12.4791V12.475C57.1888 11.5625 57.6611 10.9708 58.3347 10.9708C59.0329 10.9708 59.4682 11.5416 59.4682 12.475V12.4791C59.4682 13.4041 59.0329 13.9791 58.3347 13.9791Z" fill="white"/>
<path d="M62.4551 16.1291C63.3012 16.1291 63.7529 15.7791 64.0733 14.8708L65.6832 10.2833H64.7468L63.6585 13.85H63.6297L62.5414 10.2833H61.5803L63.1533 14.6708L63.0794 14.8791C62.9315 15.3041 62.7015 15.4166 62.2826 15.4166C62.1635 15.4166 62.0608 15.4 61.991 15.3833V16.0875C62.0978 16.1083 62.2826 16.1291 62.4551 16.1291Z" fill="white"/>
<path d="M68.7317 14.7541C69.7913 14.7541 70.4936 14.2083 70.4936 13.3916V13.3833C70.4936 12.8708 70.1815 12.5208 69.6106 12.4041V12.3708C70.0747 12.2625 70.3745 11.8916 70.3745 11.4208V11.4125C70.3745 10.6625 69.7667 10.2 68.7728 10.2C67.7994 10.2 67.1628 10.6666 67.0602 11.4458L67.0561 11.4791H67.9021L67.9062 11.45C67.9719 11.1166 68.2964 10.9125 68.7605 10.9125C69.2287 10.9125 69.5079 11.1333 69.5079 11.5083V11.5166C69.5079 11.9083 69.241 12.1083 68.7194 12.1083H68.0992V12.7625H68.7235C69.3231 12.7625 69.6106 12.9625 69.6106 13.3833V13.3916C69.6106 13.7916 69.2738 14.0375 68.7276 14.0375C68.2389 14.0375 67.9185 13.8458 67.82 13.4916L67.8076 13.45H66.937L66.9411 13.4875C67.0273 14.2625 67.7214 14.7541 68.7317 14.7541Z" fill="white"/>
<path d="M72.1991 14.6666H73.0739L75.0576 11.5875H75.0946V14.6666H75.9775V10.2833H75.1028L73.1191 13.35H73.078V10.2833H72.1991V14.6666Z" fill="white"/>
<path d="M81.1412 10.2833H77.5476V11H78.8988V14.6666H79.79V11H81.1412V10.2833Z" fill="white"/>
<path d="M84.4772 14.7541C85.5244 14.7541 86.1939 14.1208 86.3294 13.425L86.3417 13.3791H85.4957L85.4834 13.4125C85.3725 13.7416 85.0234 14.0166 84.4977 14.0166C83.7913 14.0166 83.3436 13.5333 83.3272 12.7041H86.3869V12.4C86.3869 11.0833 85.6435 10.2 84.432 10.2C83.2204 10.2 82.4401 11.1166 82.4401 12.4875V12.4916C82.4401 13.875 83.2081 14.7541 84.4772 14.7541ZM84.4361 10.9375C85.0152 10.9375 85.4382 11.3083 85.508 12.0666H83.3395C83.4217 11.3333 83.8611 10.9375 84.4361 10.9375Z" fill="white"/>
<path d="M90.7097 14.6666H92.6975C93.6339 14.6666 94.2171 14.175 94.2171 13.4083V13.4C94.2171 12.8625 93.8475 12.4708 93.2889 12.3958V12.3625C93.7037 12.2833 94.0241 11.8708 94.0241 11.4166V11.4083C94.0241 10.7125 93.5148 10.2833 92.6729 10.2833H90.7097V14.6666ZM91.5886 12.0916V10.95H92.488C92.9152 10.95 93.1452 11.1458 93.1452 11.5083V11.5166C93.1452 11.9041 92.8987 12.0916 92.3977 12.0916H91.5886ZM91.5886 14V12.7458H92.4305C93.0137 12.7458 93.3053 12.9416 93.3053 13.3625V13.3708C93.3053 13.7875 93.0343 14 92.5332 14H91.5886Z" fill="white"/>
</g>
<defs>
<clipPath id="clip0_104_2288">
<rect width="133" height="40" fill="white"/>
</clipPath>
</defs>
</svg>
