<svg width="133" height="40" viewBox="0 0 133 40" fill="none" xmlns="http://www.w3.org/2000/svg">
<g clip-path="url(#clip0_104_2287)">
<path d="M0 5.33333C0 2.38781 2.3536 0 5.25692 0H127.743C130.646 0 133 2.38782 133 5.33333V34.6667C133 37.6122 130.646 40 127.743 40H5.25692C2.3536 40 0 37.6122 0 34.6667V5.33333Z" fill="black"/>
<path fill-rule="evenodd" clip-rule="evenodd" d="M0 34.6667V5.33333C0 2.38782 2.3536 0 5.25692 0H127.743C130.646 0 133 2.38781 133 5.33333V34.6667C133 37.6122 130.646 40 127.743 40H5.25692C2.3536 40 0 37.6122 0 34.6667ZM0.788538 34.6667V5.33333C0.788538 2.82964 2.7891 0.8 5.25692 0.8H127.743C130.211 0.8 132.211 2.82964 132.211 5.33333V34.6667C132.211 37.1704 130.211 39.2 127.743 39.2H5.25692C2.7891 39.2 0.788538 37.1704 0.788538 34.6667Z" fill="white" fill-opacity="0.3"/>
<path d="M67.3896 21.7306C65.0228 21.7306 63.0673 23.6058 63.0673 26.177C63.0673 28.7272 65.0023 30.6234 67.3899 30.6234C69.7772 30.6234 71.712 28.7482 71.712 26.177C71.712 23.6058 69.7772 21.7306 67.3896 21.7306ZM67.3896 28.8541C66.0926 28.8541 64.9613 27.7368 64.9613 26.1572C64.9613 24.5556 66.0935 23.4602 67.3896 23.4602C68.6857 23.4602 69.818 24.5556 69.818 26.1572C69.818 27.7368 68.6857 28.8541 67.3896 28.8541ZM57.9834 21.7306C55.5958 21.7306 53.6608 23.6058 53.6608 26.177C53.6608 28.7272 55.5958 30.6234 57.9834 30.6234C60.3707 30.6234 62.3058 28.7482 62.3058 26.177C62.3058 23.6058 60.3707 21.7306 57.9832 21.7306H57.9834ZM57.9834 28.8541C56.6862 28.8541 55.555 27.7368 55.555 26.1572C55.555 24.5556 56.6873 23.4602 57.9834 23.4602C59.2804 23.4602 60.4117 24.5556 60.4117 26.1572C60.4117 27.7368 59.2998 28.8541 57.9834 28.8541ZM46.8068 23.1005V24.9758H51.17C51.046 26.0293 50.6972 26.809 50.1822 27.3363C49.5444 27.9893 48.5564 28.7062 46.8068 28.7062C44.1101 28.7062 42.0319 26.4726 42.0319 23.7117C42.0319 20.9509 44.1112 18.6751 46.8068 18.6751C48.2677 18.6751 49.3181 19.2653 50.1002 20.0242L51.3963 18.6961C50.305 17.6217 48.8442 16.8 46.8068 16.8C43.122 16.8 40.0345 19.8973 40.0345 23.6697C40.0345 27.4424 43.122 30.5397 46.8068 30.5397C48.8032 30.5397 50.2857 29.8657 51.4792 28.6005C52.6935 27.3573 53.064 25.6078 53.064 24.1961C53.064 23.7537 53.0232 23.3532 52.9608 23.0158L46.8068 23.1005ZM92.5418 24.5544C92.1916 23.5638 91.0807 21.7306 88.857 21.7306C86.6335 21.7306 84.8019 23.5221 84.8019 26.177C84.8019 28.6633 86.6335 30.6234 89.063 30.6234C91.0388 30.6234 92.1711 29.3802 92.6441 28.6633L91.1833 27.6519C90.6888 28.3898 90.0305 28.8739 89.063 28.8739C88.0955 28.8739 87.4167 28.4316 86.9837 27.525L92.7262 25.0597L92.5418 24.5544ZM86.6959 26.0512C86.6552 24.3437 87.9932 23.4591 88.939 23.4591C89.7008 23.4591 90.3183 23.8384 90.5444 24.4077L86.6959 26.0512ZM82.0236 30.3288H83.9176V17.3051H82.0236V30.3288ZM78.9369 22.7212H78.8754C78.4434 22.1939 77.6408 21.7306 76.6109 21.7306C74.4496 21.7306 72.4943 23.6907 72.4943 26.177C72.4943 28.6633 74.4701 30.6027 76.6109 30.6027C77.6397 30.6027 78.4425 30.1391 78.8754 29.5909H78.9369V30.2231C78.9369 31.9306 78.0512 32.836 76.6314 32.836C75.4786 32.836 74.7579 31.9724 74.4701 31.2554L72.824 31.9724C73.2968 33.1526 74.553 34.6065 76.6314 34.6065C78.854 34.6065 80.7275 33.2576 80.7275 29.9914V22.0042H78.9369V22.7212ZM76.7756 28.8541C75.4786 28.8541 74.3883 27.7368 74.3883 26.1782C74.3883 24.6195 75.4795 23.481 76.7756 23.481C78.0523 23.481 79.0812 24.6195 79.0812 26.1782C79.0802 27.7158 78.0512 28.8541 76.7756 28.8541ZM101.372 17.3054H96.8437V30.3288H98.7377V25.3971H101.372C103.472 25.3971 105.529 23.8373 105.529 21.3512C105.529 18.865 103.472 17.3051 101.372 17.3051V17.3054ZM101.433 23.586H98.7571V19.1174H101.433C102.833 19.1174 103.656 20.3187 103.656 21.351C103.636 22.3626 102.834 23.586 101.433 23.586ZM113.084 21.7096C111.725 21.7096 110.305 22.3208 109.729 23.7117L111.396 24.4287C111.767 23.7117 112.426 23.4801 113.126 23.4801C114.114 23.4801 115.102 24.0911 115.122 25.1654V25.2923C114.772 25.0817 114.052 24.7861 113.146 24.7861C111.335 24.7861 109.502 25.8187 109.502 27.7158C109.502 29.4651 110.985 30.5817 112.631 30.5817C113.908 30.5817 114.607 29.9914 115.039 29.2964H115.101V30.308H116.932V25.3131C116.912 23.0165 115.245 21.7093 113.084 21.7093V21.7096ZM112.858 28.8331C112.24 28.8331 111.375 28.5165 111.375 27.7378C111.375 26.7262 112.445 26.3468 113.371 26.3468C114.194 26.3468 114.586 26.5365 115.101 26.7892C114.956 27.9904 113.948 28.8331 112.858 28.8331ZM123.54 22.0054L121.378 27.6318H121.317L119.074 22.0052H117.037L120.412 29.8864L118.497 34.2911H120.473L125.639 22.0052H123.539L123.54 22.0054ZM106.58 30.3288H108.474V17.3051H106.58V30.3288Z" fill="white"/>
<path d="M45.7572 11.2011V13.135H44.9697V12H41.3488V13.135H40.5613V11.2011H41.1501C41.3463 10.9223 41.4911 10.5216 41.5843 9.99896C41.6775 9.47131 41.7241 8.89887 41.7241 8.28162V6.65389H45.1758V11.2011H45.7572ZM44.3515 11.2011V7.45282H42.541V8.42349C42.541 8.981 42.4969 9.49869 42.4086 9.97656C42.3252 10.4544 42.1976 10.8626 42.0259 11.2011H44.3515Z" fill="white"/>
<path d="M49.0988 12.1195C48.5885 12.1195 48.1249 11.9975 47.7078 11.7536C47.2908 11.5047 46.962 11.1662 46.7216 10.7382C46.4861 10.3101 46.3684 9.83967 46.3684 9.32696C46.3684 8.81425 46.4861 8.34634 46.7216 7.92322C46.962 7.49514 47.2908 7.15665 47.7078 6.90776C48.1249 6.65887 48.5885 6.53442 49.0988 6.53442C49.6091 6.53442 50.0703 6.65887 50.4824 6.90776C50.8995 7.15665 51.2282 7.49514 51.4686 7.92322C51.709 8.34634 51.8292 8.81425 51.8292 9.32696C51.8292 9.83967 51.709 10.3101 51.4686 10.7382C51.2331 11.1662 50.9068 11.5047 50.4898 11.7536C50.0727 11.9975 49.6091 12.1195 49.0988 12.1195ZM49.0988 11.3206C49.4472 11.3206 49.7661 11.2359 50.0556 11.0667C50.345 10.8974 50.5732 10.6635 50.74 10.3648C50.9068 10.0612 50.9902 9.71522 50.9902 9.32696C50.9902 8.93869 50.9068 8.59522 50.74 8.29656C50.5732 7.99291 50.345 7.75647 50.0556 7.58722C49.7661 7.41798 49.4472 7.33336 49.0988 7.33336C48.7504 7.33336 48.4315 7.41798 48.142 7.58722C47.8526 7.75647 47.622 7.99291 47.4502 8.29656C47.2834 8.59522 47.2 8.93869 47.2 9.32696C47.2 9.71522 47.2834 10.0612 47.4502 10.3648C47.622 10.6635 47.8526 10.8974 48.142 11.0667C48.4315 11.2359 48.7504 11.3206 49.0988 11.3206Z" fill="white"/>
<path d="M55.1869 12.1195C54.6766 12.1195 54.2105 11.9975 53.7885 11.7536C53.3666 11.5097 53.0354 11.1737 52.795 10.7456C52.5546 10.3175 52.4343 9.84465 52.4343 9.32696C52.4343 8.80927 52.5546 8.33638 52.795 7.90829C53.0354 7.4802 53.3666 7.1442 53.7885 6.90029C54.2105 6.65638 54.6766 6.53442 55.1869 6.53442C55.5843 6.53442 55.9449 6.60909 56.2687 6.75842C56.5975 6.90776 56.887 7.12429 57.1372 7.40802L56.5484 7.98296C56.3669 7.76394 56.1657 7.60216 55.9449 7.49762C55.7241 7.38811 55.4714 7.33336 55.1869 7.33336C54.8336 7.33336 54.5098 7.41549 54.2154 7.57976C53.9259 7.74402 53.6953 7.97798 53.5236 8.28162C53.3519 8.58029 53.266 8.92874 53.266 9.32696C53.266 9.72518 53.3519 10.0761 53.5236 10.3798C53.6953 10.6784 53.9259 10.9099 54.2154 11.0742C54.5098 11.2384 54.8336 11.3206 55.1869 11.3206C55.7756 11.3206 56.2761 11.0717 56.6882 10.5739L57.2844 11.1563C57.0292 11.4599 56.7226 11.6964 56.3644 11.8656C56.0062 12.0349 55.6137 12.1195 55.1869 12.1195Z" fill="white"/>
<path d="M59.2718 7.45282H57.7999V6.65389H61.5681V7.45282H60.0961V12H59.2718V7.45282Z" fill="white"/>
<path d="M62.9328 12.1195C62.7512 12.1195 62.5967 12.0871 62.4691 12.0224V11.2086C62.631 11.2982 62.7782 11.343 62.9107 11.343C63.0432 11.343 63.1487 11.3181 63.2272 11.2683C63.3057 11.2135 63.3768 11.114 63.4406 10.9696L63.6246 10.5814L61.873 6.65389H62.7929L64.022 9.61816H64.0662L65.3026 6.65389H66.2225L64.206 11.1488C64.0588 11.4823 63.8797 11.7287 63.6687 11.888C63.4627 12.0423 63.2173 12.1195 62.9328 12.1195Z" fill="white"/>
<path d="M66.9371 6.65389H70.8598V12H70.0356V7.45282H67.7614V12H66.9371V6.65389Z" fill="white"/>
<path d="M72.0616 6.65389H72.8859V8.87149H75.3293V6.65389H76.1462V12H75.3293V9.66296H72.8859V12H72.0616V6.65389Z" fill="white"/>
<path d="M79.745 12.1195C79.2347 12.1195 78.7711 11.9975 78.354 11.7536C77.937 11.5047 77.6082 11.1662 77.3678 10.7382C77.1323 10.3101 77.0145 9.83967 77.0145 9.32696C77.0145 8.81425 77.1323 8.34634 77.3678 7.92322C77.6082 7.49514 77.937 7.15665 78.354 6.90776C78.7711 6.65887 79.2347 6.53442 79.745 6.53442C80.2553 6.53442 80.7165 6.65887 81.1286 6.90776C81.5457 7.15665 81.8744 7.49514 82.1148 7.92322C82.3552 8.34634 82.4754 8.81425 82.4754 9.32696C82.4754 9.83967 82.3552 10.3101 82.1148 10.7382C81.8793 11.1662 81.553 11.5047 81.136 11.7536C80.7189 11.9975 80.2553 12.1195 79.745 12.1195ZM79.745 11.3206C80.0933 11.3206 80.4123 11.2359 80.7018 11.0667C80.9912 10.8974 81.2194 10.6635 81.3862 10.3648C81.553 10.0612 81.6364 9.71522 81.6364 9.32696C81.6364 8.93869 81.553 8.59522 81.3862 8.29656C81.2194 7.99291 80.9912 7.75647 80.7018 7.58722C80.4123 7.41798 80.0933 7.33336 79.745 7.33336C79.3966 7.33336 79.0777 7.41798 78.7882 7.58722C78.4988 7.75647 78.2681 7.99291 78.0964 8.29656C77.9296 8.59522 77.8462 8.93869 77.8462 9.32696C77.8462 9.71522 77.9296 10.0612 78.0964 10.3648C78.2681 10.6635 78.4988 10.8974 78.7882 11.0667C79.0777 11.2359 79.3966 11.3206 79.745 11.3206Z" fill="white"/>
<path d="M85.1423 6.65389H87.122C87.4017 6.65389 87.6593 6.71611 87.8948 6.84056C88.1352 6.965 88.3266 7.13674 88.4689 7.35576C88.6112 7.57478 88.6823 7.8162 88.6823 8.08002C88.6823 8.34385 88.6161 8.57282 88.4836 8.76696C88.356 8.96109 88.1867 9.10794 87.9758 9.20749V9.25229C88.2407 9.34687 88.4541 9.50367 88.6161 9.72269C88.7829 9.94171 88.8663 10.1981 88.8663 10.4918C88.8663 10.7854 88.7902 11.0468 88.6381 11.2758C88.4909 11.5047 88.2898 11.6839 88.0346 11.8134C87.7844 11.9378 87.5097 12 87.2104 12H85.1423V6.65389ZM87.0852 8.89389C87.3208 8.89389 87.5097 8.81922 87.6519 8.66989C87.7991 8.52056 87.8727 8.34882 87.8727 8.15469C87.8727 7.96056 87.8016 7.79131 87.6593 7.64696C87.5219 7.49762 87.3404 7.42296 87.1147 7.42296H85.9666V8.89389H87.0852ZM87.2104 11.2235C87.4606 11.2235 87.6593 11.1438 87.8065 10.9846C87.9586 10.8253 88.0346 10.6411 88.0346 10.432C88.0346 10.218 87.9561 10.0338 87.7991 9.87949C87.647 9.7202 87.441 9.64056 87.1809 9.64056H85.9666V11.2235H87.2104Z" fill="white"/>
<path d="M28.0436 24.2886C31.1927 22.5181 33.5803 21.1692 33.786 21.0644C34.4441 20.7059 35.1241 19.7573 33.786 19.0205C33.354 18.7888 31.028 17.4817 28.0436 15.7963L23.9067 20.0738L28.0434 24.2886H28.0436Z" fill="#FFD900"/>
<path d="M23.9067 20.0739L10.7338 33.6667C11.0428 33.7087 11.3919 33.6247 11.8037 33.3931C12.6677 32.909 21.8272 27.7874 28.0438 24.2895L23.9067 20.0739Z" fill="#F43249"/>
<path d="M23.9067 20.0739L28.0434 15.8172C28.0434 15.8172 12.7302 7.26095 11.8035 6.75609C11.4548 6.5438 11.0636 6.48104 10.7136 6.5438L23.9067 20.0737V20.0739Z" fill="#00EE76"/>
<path d="M23.9067 20.0739L10.7134 6.54407C10.1779 6.67075 9.72534 7.15508 9.72534 8.1452V32.065C9.72534 32.9718 10.0756 33.6248 10.7336 33.6876L23.9065 20.0737L23.9067 20.0739Z" fill="#00D3FF"/>
</g>
<defs>
<clipPath id="clip0_104_2287">
<rect width="133" height="40" fill="white"/>
</clipPath>
</defs>
</svg>
